<svg width="14" height="15" viewBox="0 0 14 15" fill="none" xmlns="http://www.w3.org/2000/svg">
<path d="M7.0415 0.333496C10.8385 0.333496 13.9165 3.41153 13.9165 7.2085C13.9165 11.0055 10.8385 14.0835 7.0415 14.0835C3.24454 14.0835 0.166504 11.0055 0.166504 7.2085C0.166504 3.41153 3.24454 0.333496 7.0415 0.333496Z" fill="#F0B90B"/>
<path d="M5.34231 10.0058L4.27295 8.93602L8.73974 4.46924L9.80909 5.5386L5.34231 10.0058Z" fill="#252525"/>
<path d="M6.98088 11.6441L5.91113 10.5747L10.3783 6.10791L11.4477 7.17727L6.98088 11.6441Z" fill="#252525"/>
<path d="M5.39455 6.67449L4.3252 5.60513L7.15298 2.77734L8.22273 3.8467L5.39455 6.67449Z" fill="#252525"/>
<path d="M3.70315 8.36625L2.63379 7.2969L3.70315 6.22754L4.7725 7.2969L3.70315 8.36625Z" fill="#252525"/>
</svg>
