<svg width="19" height="22" viewBox="0 0 19 22" fill="white" xmlns="http://www.w3.org/2000/svg">
<path d="M9.43359 8.8457L14.5459 0.671875H17.8564L11.1182 11.248L18.0176 22H14.6777L9.43359 13.6797L4.16016 22H0.834961L7.74902 11.248L0.996094 0.671875H4.29199L9.43359 8.8457Z" fill="white"/>
<path d="M9.43359 8.8457L8.58713 9.37815L9.43601 10.7277L10.2814 9.37598L9.43359 8.8457ZM14.5459 0.671875V-0.328125H13.9919L13.6981 0.141603L14.5459 0.671875ZM17.8564 0.671875L18.6998 1.2092L19.6793 -0.328125H17.8564V0.671875ZM11.1182 11.248L10.2748 10.7107L9.93122 11.25L10.2765 11.7881L11.1182 11.248ZM18.0176 22V23H19.8474L18.8592 21.4599L18.0176 22ZM14.6777 22L13.8317 22.5332L14.126 23H14.6777V22ZM9.43359 13.6797L10.2796 13.1465L9.43595 11.808L8.58895 13.1444L9.43359 13.6797ZM4.16016 22V23H4.71029L5.0048 22.5353L4.16016 22ZM0.834961 22L-0.00614307 21.4591L-0.997004 23H0.834961V22ZM7.74902 11.248L8.59013 11.7889L8.93671 11.25L8.59187 10.7099L7.74902 11.248ZM0.996094 0.671875V-0.328125H-0.82887L0.15325 1.21003L0.996094 0.671875ZM4.29199 0.671875L5.13845 0.139424L4.84435 -0.328125H4.29199V0.671875ZM10.2814 9.37598L15.3937 1.20215L13.6981 0.141603L8.58577 8.31543L10.2814 9.37598ZM14.5459 1.67188H17.8564V-0.328125H14.5459V1.67188ZM17.0131 0.134546L10.2748 10.7107L11.9615 11.7854L18.6998 1.2092L17.0131 0.134546ZM10.2765 11.7881L17.176 22.5401L18.8592 21.4599L11.9598 10.708L10.2765 11.7881ZM18.0176 21H14.6777V23H18.0176V21ZM15.5237 21.4668L10.2796 13.1465L8.58761 14.2129L13.8317 22.5332L15.5237 21.4668ZM8.58895 13.1444L3.31552 21.4647L5.0048 22.5353L10.2782 14.215L8.58895 13.1444ZM4.16016 21H0.834961V23H4.16016V21ZM1.67606 22.5409L8.59013 11.7889L6.90792 10.7072L-0.00614307 21.4591L1.67606 22.5409ZM8.59187 10.7099L1.83894 0.133716L0.15325 1.21003L6.90618 11.7862L8.59187 10.7099ZM0.996094 1.67188H4.29199V-0.328125H0.996094V1.67188ZM3.44553 1.20433L8.58713 9.37815L10.2801 8.31325L5.13845 0.139424L3.44553 1.20433Z" fill="none"/>
</svg>
