<svg width="36" height="36" viewBox="0 0 36 36" fill="none" xmlns="http://www.w3.org/2000/svg">
<path d="M18 36C8.07609 36 0 27.9239 0 18C0 8.07609 8.07609 0 18 0C27.9239 0 36 8.07609 36 18C36 27.9239 27.9239 36 18 36ZM18 1.29218C8.78679 1.29218 1.29218 8.78679 1.29218 18C1.29218 27.2132 8.78679 34.7078 18 34.7078C27.2132 34.7078 34.7078 27.2132 34.7078 18C34.7078 8.78679 27.2132 1.29218 18 1.29218Z" fill="url(#paint0_linear_159_525)"/>
<path d="M27.4673 26.0676L19.0596 18.0389L27.084 9.6311L26.1493 8.7395L18.1249 17.1473L9.71283 9.12285L8.82123 10.0575L17.2333 18.0819L9.20457 26.494L10.1392 27.3856L18.168 18.9735L26.5757 27.0022L27.4673 26.0676Z" fill="url(#paint1_linear_159_525)"/>
<defs>
<linearGradient id="paint0_linear_159_525" x1="2.88586" y1="8.23116" x2="33.1141" y2="27.7688" gradientUnits="userSpaceOnUse">
<stop stop-color="#A4F240"/>
<stop offset="1" stop-color="#FEE33E"/>
</linearGradient>
<linearGradient id="paint1_linear_159_525" x1="7.92101" y1="11.4531" x2="28.3718" y2="24.672" gradientUnits="userSpaceOnUse">
<stop stop-color="#A4F240"/>
<stop offset="1" stop-color="#FEE33E"/>
</linearGradient>
</defs>
</svg>
