<svg width="44" height="42" viewBox="0 0 44 42" fill="none" xmlns="http://www.w3.org/2000/svg">
<g clip-path="url(#clip0_52_242)">
<path d="M21.9727 41.1427C33.8915 41.1427 43.5536 31.9326 43.5536 20.5713C43.5536 9.21011 33.8915 0 21.9727 0C10.0538 0 0.391724 9.21011 0.391724 20.5713C0.391724 31.9326 10.0538 41.1427 21.9727 41.1427Z" fill="#A4F240"/>
<path d="M21.9727 41.1427C33.8915 41.1427 43.5536 31.9326 43.5536 20.5713C43.5536 9.21011 33.8915 0 21.9727 0C10.0538 0 0.391724 9.21011 0.391724 20.5713C0.391724 31.9326 10.0538 41.1427 21.9727 41.1427Z" fill="#FEE33E" fill-opacity="0.63"/>
<path d="M36.3679 10.7829H7.57143C7.21633 10.7829 6.92847 11.0726 6.92847 11.4299V28.0295C6.92847 28.3868 7.21633 28.6765 7.57143 28.6765H36.3679C36.723 28.6765 37.0108 28.3868 37.0108 28.0295V11.4299C37.0108 11.0726 36.723 10.7829 36.3679 10.7829Z" fill="white"/>
<path d="M37.0108 11.8732L21.9726 20.817L6.92847 11.8732H37.0108Z" fill="#9B9B9B"/>
</g>
<defs>
<clipPath id="clip0_52_242">
<rect width="43.1559" height="41.1487" fill="white" transform="translate(0.391724)"/>
</clipPath>
</defs>
</svg>
