<svg width="25" height="32" viewBox="0 0 25 32" fill="none" xmlns="http://www.w3.org/2000/svg">
<rect y="7" width="25" height="25" rx="5" fill="black" fill-opacity="0.3"/>
<path d="M14.2162 15.75C13.9829 15.75 13.7829 15.675 13.6162 15.525C13.4662 15.3583 13.3912 15.1667 13.3912 14.95C13.3912 14.6667 13.4829 14.425 13.6662 14.225C13.8662 14.025 14.0995 13.925 14.3662 13.925C14.5995 13.925 14.7995 14.0083 14.9662 14.175C15.1329 14.3417 15.2162 14.55 15.2162 14.8C15.2162 15.0667 15.1162 15.2917 14.9162 15.475C14.7162 15.6583 14.4829 15.75 14.2162 15.75ZM11.4662 25.125C11.1662 25.125 10.9245 25.0167 10.7412 24.8C10.5745 24.5667 10.4912 24.2667 10.4912 23.9C10.4912 23.4333 10.5829 22.9333 10.7662 22.4C10.9662 21.8667 11.1912 21.3333 11.4412 20.8C11.7079 20.25 11.9412 19.7333 12.1412 19.25C12.2245 19.0167 12.2995 18.8083 12.3662 18.625C12.4329 18.4417 12.4662 18.2917 12.4662 18.175C12.4662 18.0083 12.3912 17.925 12.2412 17.925C12.0412 17.925 11.8412 18.05 11.6412 18.3C11.4412 18.55 11.2579 18.8333 11.0912 19.15C10.9412 19.45 10.8162 19.6917 10.7162 19.875C10.4662 20.3583 10.1912 20.8583 9.89121 21.375C9.60788 21.8917 9.31621 22.3667 9.01621 22.8C9.01621 22.8167 8.99954 22.825 8.96621 22.825C8.93288 22.825 8.89121 22.8 8.84121 22.75C8.79121 22.7 8.77454 22.6667 8.79121 22.65C9.10788 22.2 9.39954 21.725 9.66621 21.225C9.94954 20.7083 10.2079 20.2167 10.4412 19.75C10.6079 19.4 10.7912 19.0417 10.9912 18.675C11.2079 18.2917 11.4579 17.975 11.7412 17.725C12.0245 17.4583 12.3495 17.325 12.7162 17.325C12.8829 17.325 13.0745 17.3667 13.2912 17.45C13.5412 17.55 13.6662 17.7667 13.6662 18.1C13.6662 18.2667 13.6329 18.4667 13.5662 18.7C13.5162 18.9167 13.4412 19.1667 13.3412 19.45C13.1245 20.0167 12.8829 20.5917 12.6162 21.175C12.3662 21.7417 12.1329 22.3167 11.9162 22.9C11.7495 23.35 11.6662 23.75 11.6662 24.1C11.6662 24.4833 11.7912 24.675 12.0412 24.675C12.2745 24.675 12.6329 24.4667 13.1162 24.05C13.5995 23.6167 14.0495 23.075 14.4662 22.425C14.8829 21.7583 15.3829 20.8667 15.9662 19.75C15.9829 19.7167 16.0162 19.7 16.0662 19.7C16.0995 19.7 16.1329 19.725 16.1662 19.775C16.2162 19.8083 16.2329 19.8417 16.2162 19.875C15.3329 21.5917 14.5412 22.9 13.8412 23.8C13.1412 24.6833 12.3495 25.125 11.4662 25.125Z" fill="#FBFBFB"/>
</svg>
