<svg width="115" height="78" viewBox="0 0 115 78" fill="none" xmlns="http://www.w3.org/2000/svg">
<path d="M57.5 78C56.5012 78 55.676 77.1819 55.676 76.1916V16.5128C55.676 7.40602 63.1458 0 72.3311 0H106.488C107.487 0 108.312 0.818106 108.312 1.80845V61.4656C108.312 62.456 107.487 63.2741 106.488 63.2741H72.3311C65.1653 63.2741 59.3241 69.0654 59.3241 76.17C59.3241 77.1604 58.4989 77.9785 57.5 77.9785V78ZM72.3311 3.61689C65.1653 3.61689 59.3241 9.40823 59.3241 16.5128V65.8791C62.3858 62.09 67.0761 59.6572 72.3311 59.6572H104.664V3.61689H72.3311Z" fill="black"/>
<path d="M69.747 77.9999C68.7481 77.9999 67.923 77.1818 67.923 76.1914C67.923 71.1321 72.0704 67.02 77.1734 67.02H106.488C107.487 67.02 108.312 67.8381 108.312 68.8285C108.312 69.8188 107.487 70.6369 106.488 70.6369H77.1734C74.0899 70.6369 71.571 73.1343 71.571 76.1914C71.571 77.1818 70.7459 77.9999 69.747 77.9999Z" fill="black"/>
<path d="M57.5 78C56.5012 78 55.676 77.1819 55.676 76.1916C55.676 69.0869 49.8348 63.2956 42.669 63.2956H8.51213C7.51326 63.2956 6.68811 62.4775 6.68811 61.4872V1.80845C6.68811 0.818106 7.51326 0 8.51213 0H42.669C51.8543 0 59.3241 7.40602 59.3241 16.5128V76.17C59.3241 77.1604 58.4989 77.9785 57.5 77.9785V78ZM10.3361 59.6572H42.669C47.9239 59.6572 52.636 62.09 55.676 65.8791V16.5128C55.676 9.40823 49.8348 3.61689 42.669 3.61689H10.3361V59.6572Z" fill="black"/>
<path d="M45.2531 77.9999C44.2542 77.9999 43.429 77.1818 43.429 76.1914C43.429 73.1343 40.9102 70.6369 37.8267 70.6369H8.51213C7.51326 70.6369 6.68811 69.8188 6.68811 68.8285C6.68811 67.8381 7.51326 67.02 8.51213 67.02H37.8267C42.9296 67.02 47.0771 71.1321 47.0771 76.1914C47.0771 77.1818 46.2519 77.9999 45.2531 77.9999Z" fill="black"/>
<path d="M57.5 78.0002H1.82402C0.825151 78.0002 0 77.1821 0 76.1917V7.12632C0 6.13598 0.825151 5.31787 1.82402 5.31787H8.51209C9.51095 5.31787 10.3361 6.13598 10.3361 7.12632V59.6574H42.669C51.8542 59.6574 59.324 67.0634 59.324 76.1702C59.324 77.1605 58.4989 77.9786 57.5 77.9786V78.0002ZM3.64804 74.3833H55.5457C54.6554 68.1183 49.2268 63.2958 42.669 63.2958H8.51209C7.51322 63.2958 6.68807 62.4777 6.68807 61.4873V8.93476H3.64804V74.3833Z" fill="black"/>
<path d="M113.176 78.0002H57.5C56.5012 78.0002 55.676 77.1821 55.676 76.1917C55.676 67.0849 63.1458 59.6789 72.3311 59.6789H104.664V7.12632C104.664 6.13598 105.489 5.31787 106.488 5.31787H113.176C114.175 5.31787 115 6.13598 115 7.12632V76.1917C115 77.1821 114.175 78.0002 113.176 78.0002ZM59.4543 74.3833H111.352V8.93476H108.312V61.4658C108.312 62.4562 107.487 63.2743 106.488 63.2743H72.3311C65.7733 63.2743 60.3446 68.0968 59.4543 74.3618V74.3833Z" fill="black"/>
<path d="M14.0059 7.23378V55.1145H38.6084C41.3444 55.1145 44.0587 55.5021 46.6428 56.2986C49.2268 57.0952 52.2017 58.3439 53.3743 59.9586V17.8261C53.3743 15.9746 52.9182 14.1446 51.9628 12.5515C50.6165 10.2694 48.1628 7.55672 44.0587 7.21225C36.8495 6.60944 14.0059 7.21225 14.0059 7.21225V7.23378Z" fill="black"/>
<path d="M101.689 7.23378V55.1145H77.0865C74.3505 55.1145 71.6362 55.5021 69.0522 56.2986C66.4681 57.0952 63.4933 58.3439 62.3207 59.9586V17.8261C62.3207 15.9746 62.7767 14.1446 63.7321 12.5515C65.0784 10.2694 67.5322 7.55672 71.6362 7.21225C78.8454 6.60944 101.689 7.21225 101.689 7.21225V7.23378Z" fill="black"/>
</svg>
