<svg width="134" height="96" viewBox="0 0 134 96" fill="none" xmlns="http://www.w3.org/2000/svg">
<g clip-path="url(#clip0_489_49)">
<path d="M12.5711 50.7432H21.1874V91.4078H12.5711C5.63735 91.4078 0 85.7826 0 78.8547V63.2962C0 56.3684 5.63735 50.7432 12.5711 50.7432Z" fill="black"/>
<path d="M18.5872 46.9082H16.9412C15.5051 46.9082 14.341 48.0713 14.341 49.5061V92.6305C14.341 94.0653 15.5051 95.2284 16.9412 95.2284H18.5872C20.0233 95.2284 21.1874 94.0653 21.1874 92.6305V49.5061C21.1874 48.0713 20.0233 46.9082 18.5872 46.9082Z" fill="#4F4F4F"/>
<path d="M121.444 91.3354L112.828 91.3414L112.8 50.6768L121.416 50.6708C128.35 50.6659 133.984 56.2872 133.989 63.2151L134 78.7736C134.004 85.7014 128.378 91.3306 121.444 91.3354Z" fill="#040404"/>
<path d="M115.431 95.1719L117.077 95.1708C118.513 95.1698 119.676 94.0058 119.675 92.571L119.645 49.4467C119.644 48.0119 118.479 46.8496 117.043 46.8506L115.397 46.8517C113.961 46.8527 112.798 48.0167 112.799 49.4515L112.829 92.5758C112.83 94.0106 113.995 95.1729 115.431 95.1719Z" fill="#4F4F4F"/>
<path d="M116.68 67.1751V51.9295C116.651 24.6403 94.4948 2.52506 67.1748 2.54689C39.8621 2.56145 17.7278 24.7058 17.7496 51.995V67.2406" stroke="#4F4F4F" stroke-width="3" stroke-miterlimit="10"/>
<path d="M102.157 16.9993C93.2057 8.06295 80.8312 2.53961 67.1748 2.54688C53.5184 2.55416 41.1585 8.09206 32.2072 17.0429" stroke="black" stroke-width="5" stroke-linecap="round" stroke-linejoin="round"/>
<path d="M28.6747 67.5464H25.186V74.6343H28.6747V67.5464Z" fill="#020202"/>
<path d="M34.3703 59.4106H30.8816V82.7557H34.3703V59.4106Z" fill="#424242"/>
<path d="M40.066 64.8901H36.5772V77.2758H40.066V64.8901Z" fill="#424242"/>
<path d="M45.7616 61.2007H42.2728V80.9581H45.7616V61.2007Z" fill="#020202"/>
<path d="M51.4645 65.8364H47.9757V76.3082H51.4645V65.8364Z" fill="#424242"/>
<path d="M57.1601 53.8071H53.6713V88.3371H57.1601V53.8071Z" fill="#020202"/>
<path d="M62.8557 58.2754H59.3669V83.8545H62.8557V58.2754Z" fill="#424242"/>
<path d="M68.5514 46.1299H65.0626V95.9928H68.5514V46.1299Z" fill="#020202"/>
<path d="M108.821 67.4951H105.333V74.583H108.821V67.4951Z" fill="#424242"/>
<path d="M103.126 59.3667H99.6369V82.7118H103.126V59.3667Z" fill="#010101"/>
<path d="M97.4227 64.8535H93.934V77.2392H97.4227V64.8535Z" fill="#010101"/>
<path d="M91.7271 61.1714H88.2383V80.9288H91.7271V61.1714Z" fill="#424242"/>
<path d="M86.0315 65.8145H82.5427V76.2863H86.0315V65.8145Z" fill="#424242"/>
<path d="M80.3359 53.7925H76.8471V88.3225H80.3359V53.7925Z" fill="#010101"/>
<path d="M74.633 58.2681H71.1442V83.8472H74.633V58.2681Z" fill="#424242"/>
</g>
<defs>
<clipPath id="clip0_489_49">
<rect width="134" height="96" fill="white"/>
</clipPath>
</defs>
</svg>
