<svg width="101" height="101" viewBox="0 0 101 101" fill="none" xmlns="http://www.w3.org/2000/svg">
<path d="M91.8602 100.444H9.11755C4.40337 100.444 0.556427 96.5968 0.556427 91.8826V11.9863C0.556427 5.69331 5.67086 0.556641 11.9861 0.556641H97.575C99.1538 0.556641 100.421 1.84637 100.421 3.40294C100.421 4.9595 99.1316 6.24923 97.575 6.24923H11.9861C8.82847 6.24923 6.27125 8.80645 6.27125 11.9641C6.27125 15.1217 8.82847 17.6789 11.9861 17.6789H97.575C99.1538 17.6789 100.421 18.9686 100.421 20.5252V91.8604C100.421 96.5746 96.5744 100.422 91.8602 100.422V100.444ZM6.27125 21.8594V91.8604C6.27125 93.4392 7.53874 94.7067 9.11755 94.7067H91.8602C93.439 94.7067 94.7287 93.417 94.7287 91.8604V23.3937H11.9861C9.91806 23.3937 7.96124 22.8378 6.27125 21.8594Z" fill="#020202"/>
<path d="M97.575 71.8918H79.0297C71.9584 71.8918 66.1991 66.1325 66.1991 59.0613C66.1991 51.99 71.9584 46.2085 79.0297 46.2085H97.575C99.1538 46.2085 100.421 47.4982 100.421 49.0548V69.0233C100.421 70.6021 99.1316 71.8696 97.575 71.8696V71.8918ZM79.0297 51.9233C75.0938 51.9233 71.9139 55.1254 71.9139 59.0613C71.9139 62.9972 75.116 66.177 79.0297 66.177H94.7288V51.9233H79.0297Z" fill="#020202"/>
<path d="M16.2555 86.1675C14.6767 86.1675 13.4092 84.8778 13.4092 83.3212V50.4999C13.4092 48.9211 14.699 47.6313 16.2555 47.6313C17.8121 47.6313 19.1018 48.9211 19.1018 50.4999V83.3212C19.1018 84.9 17.8121 86.1675 16.2555 86.1675Z" fill="#020202"/>
<path d="M16.2555 44.7852C14.6767 44.7852 13.4092 43.4954 13.4092 41.9389V40.5157C13.4092 38.9369 14.699 37.6694 16.2555 37.6694C17.8121 37.6694 19.1018 38.9592 19.1018 40.5157V41.9389C19.1018 43.5177 17.8121 44.7852 16.2555 44.7852Z" fill="#020202"/>
</svg>
