<?xml version="1.0" encoding="utf-8"?>
<!-- Svg Vector Icons : http://www.onlinewebfonts.com/icon -->
<!DOCTYPE svg PUBLIC "-//W3C//DTD SVG 1.1//EN" "http://www.w3.org/Graphics/SVG/1.1/DTD/svg11.dtd">
<svg version="1.1" xmlns="http://www.w3.org/2000/svg" xmlns:xlink="http://www.w3.org/1999/xlink" x="0px" y="0px" viewBox="0 0 1000 1000" enable-background="new 0 0 1000 1000" xml:space="preserve">
<metadata> Svg Vector Icons : http://www.onlinewebfonts.com/icon </metadata>
<g><g><g><path fill='white' d="M465.6,112.6c-13.3-5.5-28.5-2.4-38.8,7.8L211.5,337.1H45.6c-19.8,0-35.6,15.9-35.6,35.6V630c0,19.7,15.9,35.6,35.6,35.6h165.1L427,882.3c6.8,6.8,16,10.5,25.2,10.5c4.5,0,9.3-0.9,13.6-2.7c13.4-5.5,22-18.5,22-32.9V145.5C487.8,131.1,479,118.1,465.6,112.6z"/><path fill='white' d="M836.5,500.4c0-133.5-79.3-253.7-202.2-306.4c-18.1-7.7-39.1,0.6-46.8,18.7c-7.8,18.1,0.6,39,18.7,46.8c96.7,41.4,159.1,136,159.1,240.9c0,104.5-62.1,198.8-158.3,240.3c-18,7.8-26.4,28.8-18.6,46.8c5.8,13.5,18.9,21.5,32.8,21.5c4.6,0,9.4-0.9,14-2.9C757.6,753.3,836.5,633.3,836.5,500.4z"/><path fill='white' d="M678.9,500.3c0-70.5-41.9-133.9-106.9-161.5c-18-7.5-39,0.8-46.6,18.9c-7.8,18.1,0.7,39,18.8,46.7c38.6,16.3,63.5,54,63.5,95.8c0,41.4-24.6,78.8-62.7,95.4c-18.1,7.8-26.3,28.8-18.6,46.8C532.1,656,545.2,664,559,664c4.7,0,9.6-0.9,14.2-3C637.4,633.2,678.9,570.1,678.9,500.3z"/><path fill='white' d="M694.9,52.9c-18.1-7.8-39.2,0.6-46.8,18.7c-7.8,18.1,0.6,39,18.7,46.8c153.1,65.7,252,215.6,252,382.1c0,165.8-98.5,315.4-251.1,381.3c-18.1,7.8-26.5,28.7-18.7,46.8c5.9,13.5,18.9,21.5,32.7,21.5c4.7,0,9.6-0.9,14.2-2.9C874.5,870,990,694.7,990,500.4C990,305.5,874.2,129.8,694.9,52.9z"/></g></g><g></g><g></g><g></g><g></g><g></g><g></g><g></g><g></g><g></g><g></g><g></g><g></g><g></g><g></g><g></g></g>
</svg>