<svg width="46" height="43" viewBox="0 0 46 43" fill="none" xmlns="http://www.w3.org/2000/svg">
<g clip-path="url(#clip0_52_237)">
<path d="M22.7739 42.1583C35.2453 42.1583 45.3555 32.7209 45.3555 21.0792C45.3555 9.43746 35.2453 0 22.7739 0C10.3024 0 0.192261 9.43746 0.192261 21.0792C0.192261 32.7209 10.3024 42.1583 22.7739 42.1583Z" fill="#A4F240"/>
<path d="M22.7739 42.1583C35.2453 42.1583 45.3555 32.7209 45.3555 21.0792C45.3555 9.43746 35.2453 0 22.7739 0C10.3024 0 0.192261 9.43746 0.192261 21.0792C0.192261 32.7209 10.3024 42.1583 22.7739 42.1583Z" fill="#FEE33E" fill-opacity="0.63"/>
<path d="M15.4786 22.6188L18.1586 29.5409C18.1586 29.5409 18.4944 30.1904 18.8546 30.1904C19.2148 30.1904 24.5503 25.0123 24.5503 25.0123L30.4842 14.3194L15.5824 20.8386L15.4847 22.6248L15.4786 22.6188Z" fill="#8C8C8C"/>
<path d="M19.0317 24.3929L18.5189 29.4928C18.5189 29.4928 18.3052 31.0564 19.9779 29.4928C21.6506 27.9291 23.2562 26.7263 23.2562 26.7263L19.0317 24.3929Z" fill="#666666"/>
<path d="M15.5275 22.8653L10.0149 21.1874C10.0149 21.1874 9.35556 20.9408 9.56923 20.3695C9.61196 20.2552 9.70353 20.153 9.96604 19.9846C11.187 19.1908 32.5659 12.016 32.5659 12.016C32.5659 12.016 33.1703 11.8236 33.5244 11.9499C33.6892 12.01 33.793 12.0702 33.8785 12.3107C33.909 12.3949 33.9273 12.5813 33.9273 12.7618C33.9273 12.8941 33.909 13.0144 33.8968 13.2068C33.7686 15.1674 29.8737 29.8055 29.8737 29.8055C29.8737 29.8055 29.6418 30.6595 28.8054 30.6896C28.5002 30.7016 28.1339 30.6415 27.6882 30.2866C26.0521 28.9696 20.3808 25.4153 19.1293 24.6335C19.0561 24.5914 19.0377 24.5312 19.0255 24.4771C19.0072 24.3929 19.1049 24.2907 19.1049 24.2907C19.1049 24.2907 28.9702 16.1056 29.2327 15.2456C29.251 15.1794 29.1778 15.1433 29.074 15.1734C28.4208 15.3959 17.0598 22.0955 15.8083 22.8353C15.7351 22.8774 15.5275 22.8533 15.5275 22.8533V22.8653Z" fill="white"/>
</g>
<defs>
<clipPath id="clip0_52_237">
<rect width="45.1632" height="42.1523" fill="white" transform="translate(0.192261)"/>
</clipPath>
</defs>
</svg>
