<svg width="44" height="43" viewBox="0 0 44 43" fill="none" xmlns="http://www.w3.org/2000/svg">
<g clip-path="url(#clip0_52_234)">
<path d="M21.578 42.1583C33.4952 42.1583 43.1559 32.7209 43.1559 21.0792C43.1559 9.43746 33.4952 0 21.578 0C9.66079 0 0 9.43746 0 21.0792C0 32.7209 9.66079 42.1583 21.578 42.1583Z" fill="#A4F240"/>
<path d="M21.578 42.1583C33.4952 42.1583 43.1559 32.7209 43.1559 21.0792C43.1559 9.43746 33.4952 0 21.578 0C9.66079 0 0 9.43746 0 21.0792C0 32.7209 9.66079 42.1583 21.578 42.1583Z" fill="#FEE33E" fill-opacity="0.63"/>
<path d="M17.2145 33.2155C27.7556 33.2155 33.5132 24.6876 33.5132 17.2903C33.5132 17.0498 33.5132 16.8092 33.4957 16.5686C34.6157 15.7808 35.5841 14.7945 36.3541 13.6699C35.3274 14.1149 34.2249 14.4156 33.064 14.5479C34.2482 13.8563 35.1524 12.7618 35.5841 11.4507C34.4757 12.0942 33.2507 12.5573 31.944 12.8099C30.8998 11.7213 29.4123 11.0417 27.7614 11.0417C24.5997 11.0417 22.033 13.5496 22.033 16.6408C22.033 17.0798 22.0855 17.5068 22.1788 17.9158C17.4187 17.6812 13.1953 15.456 10.3719 12.0701C9.88185 12.8941 9.59601 13.8563 9.59601 14.8847C9.59601 16.8272 10.6052 18.5412 12.1452 19.5456C11.206 19.5155 10.3252 19.2629 9.54935 18.848C9.54935 18.872 9.54935 18.8961 9.54935 18.9201C9.54935 21.6325 11.5269 23.8937 14.1461 24.4049C13.6678 24.5312 13.1603 24.6034 12.6352 24.6034C12.2677 24.6034 11.9061 24.5673 11.5561 24.5011C12.2852 26.7263 14.4028 28.3441 16.9112 28.3862C14.9511 29.8897 12.4777 30.7798 9.79435 30.7798C9.33351 30.7798 8.8785 30.7557 8.42932 30.7016C10.9669 32.2893 13.9769 33.2155 17.2145 33.2155Z" fill="white"/>
</g>
<defs>
<clipPath id="clip0_52_234">
<rect width="43.1559" height="42.1523" fill="white"/>
</clipPath>
</defs>
</svg>
